<svg width="28" height="27" viewBox="0 0 28 27" fill="none" xmlns="http://www.w3.org/2000/svg">
<path fill-rule="evenodd" clip-rule="evenodd" d="M3.05176e-05 26.8034L3.03427e-05 22.8034L2.99318e-05 13.4017L2.95208e-05 4.00003L2.9346e-05 2.86102e-05C0.97428 2.85676e-05 1.93899 0.346674 2.83908 1.02017C3.24414 1.32326 3.63254 1.68987 4.00003 2.11487C4.44915 2.63426 4.86703 3.24086 5.24591 3.92529C5.93481 5.16975 6.48127 6.64715 6.8541 8.27311C7.22693 9.89908 7.41882 11.6418 7.41882 13.4017C7.41882 15.1617 7.22693 16.9044 6.8541 18.5303C6.83526 18.6125 6.81597 18.6943 6.79625 18.7757L4.09436 20.3356L2.94257 19.6639L2.15389 21.0162L4.65747 22.4763L4.66868 22.4957L4.67977 22.4893L5.27037 22.8338L5.24591 22.8781C4.86703 23.5626 4.44915 24.1692 4.00003 24.6886C3.63254 25.1136 3.24414 25.4802 2.83908 25.7833C1.93899 26.4568 0.97428 26.8034 3.05176e-05 26.8034Z" fill="#AD6800"/>
<mask id="path-2-inside-1_6_2" fill="white">
<path d="M9.67863 19.4801C8.80778 19.7804 7.97151 18.8128 8.33183 17.965C8.94448 16.5235 9.5726 14.6765 9.5726 13.1624C9.5726 11.6483 8.94448 9.80121 8.33183 8.35974C7.97151 7.51196 8.80778 6.5444 9.67863 6.8447L25.2583 12.217C26.157 12.5269 26.157 13.7979 25.2583 14.1078L9.67863 19.4801Z"/>
</mask>
<path d="M9.67863 19.4801C8.80778 19.7804 7.97151 18.8128 8.33183 17.965C8.94448 16.5235 9.5726 14.6765 9.5726 13.1624C9.5726 11.6483 8.94448 9.80121 8.33183 8.35974C7.97151 7.51196 8.80778 6.5444 9.67863 6.8447L25.2583 12.217C26.157 12.5269 26.157 13.7979 25.2583 14.1078L9.67863 19.4801Z" fill="#AD6800"/>
<path d="M25.2583 12.217L24.6064 14.1078L25.2583 12.217ZM9.67863 6.8447L9.02665 8.73544L9.67863 6.8447ZM9.67863 19.4801L10.3306 21.3708L9.67863 19.4801ZM9.02665 8.73544L24.6064 14.1078L25.9103 10.3263L10.3306 4.95395L9.02665 8.73544ZM24.6064 12.217L9.02665 17.5893L10.3306 21.3708L25.9103 15.9985L24.6064 12.217ZM10.1725 18.7473C10.7987 17.274 11.5726 15.1083 11.5726 13.1624L7.5726 13.1624C7.5726 14.2447 7.09029 15.7731 6.49118 17.1827L10.1725 18.7473ZM11.5726 13.1624C11.5726 11.2165 10.7987 9.05077 10.1725 7.57743L6.49118 9.14205C7.09029 10.5517 7.5726 12.0801 7.5726 13.1624L11.5726 13.1624ZM24.6064 14.1078C23.7077 13.7979 23.7077 12.5269 24.6064 12.217L25.9103 15.9985C28.6064 15.0688 28.6064 11.2559 25.9103 10.3263L24.6064 14.1078ZM10.3306 4.95395C8.98904 4.49134 7.74612 5.04983 7.04163 5.85099C6.34461 6.64364 5.96357 7.90065 6.49118 9.14205L10.1725 7.57743C10.3398 7.97105 10.1967 8.32039 10.0455 8.49239C9.88673 8.6729 9.49736 8.89776 9.02665 8.73544L10.3306 4.95395ZM9.02665 17.5893C9.49736 17.427 9.88673 17.6519 10.0455 17.8324C10.1967 18.0044 10.3398 18.3537 10.1725 18.7473L6.49118 17.1827C5.96357 18.4241 6.34462 19.6811 7.04163 20.4738C7.74612 21.2749 8.98904 21.8334 10.3306 21.3708L9.02665 17.5893Z" fill="#754600" mask="url(#path-2-inside-1_6_2)"/>
</svg>
