<svg width="121" height="61" viewBox="0 0 121 61" fill="none" xmlns="http://www.w3.org/2000/svg">
<path d="M41.326 38.6738L40.5 36L39.674 38.6738H37L39.163 40.3262L38.337 43L40.5 41.3476L42.663 43L41.837 40.3262L44 38.6738H41.326Z" fill="#CECECE"/>
<path d="M49.5 36L50.326 38.6738H53L50.837 40.3263L51.663 43L49.5 41.3476L47.337 43L48.163 40.3263L46 38.6738H48.674L49.5 36Z" fill="#CECECE"/>
<path d="M60.326 38.6738L59.5 36L58.674 38.6738H56L58.163 40.3263L57.337 43L59.5 41.3476L61.663 43L60.837 40.3263L63 38.6738H60.326Z" fill="#CECECE"/>
<path d="M69 36L69.944 38.6738H73L70.528 40.3263L71.472 43L69 41.3476L66.528 43L67.472 40.3263L65 38.6738H68.056L69 36Z" fill="#CECECE"/>
<path d="M79.327 38.6738L78.5 36L77.673 38.6738H75L77.163 40.3263L76.337 43L78.5 41.3476L80.663 43L79.837 40.3263L82 38.6738H79.327Z" fill="#CECECE"/>
<path d="M6.06302 13.2862C5.29802 11.3008 5.63002 9.0179 6.33502 7.0978C7.07702 5.0774 8.36902 3.0626 10.3 2C10.396 4.1291 9.75904 6.2326 9.06204 8.1294C8.43604 9.8355 7.66704 11.6531 6.39804 13.064C6.20304 14.1331 6.05403 15.1993 5.94903 16.2605C6.37003 15.1394 7.05204 14.1175 7.90204 13.2958C8.99804 12.2378 10.628 11.4214 12.157 11.9042C11.709 13.6297 10.688 15.2837 9.47802 16.4441C8.52602 17.3574 7.27003 18.5277 5.78903 18.5737C5.72803 20.1354 5.76304 21.6828 5.88904 23.2092C6.09804 22.0922 6.54501 21.0403 7.19201 20.257C8.08001 19.1806 9.39703 17.8656 11.078 18.0856C10.987 19.832 10.304 21.6213 9.35302 22.9659C8.59802 24.0344 7.60003 25.3961 6.18503 25.7479C6.41103 27.2478 6.72702 28.7228 7.12802 30.1661C7.13202 29.061 7.37103 27.9763 7.84503 27.1063C8.51403 25.8794 9.55602 24.3494 11.24 24.2298C11.487 25.9431 11.152 27.816 10.478 29.3057C9.93802 30.4964 9.21902 32.0148 7.90902 32.6431C8.45902 34.1959 9.11102 35.7054 9.85702 37.1623C9.59502 35.9065 9.60501 34.5833 9.91601 33.3927C10.343 31.7513 11.404 30.0271 13.108 29.5268C13.71 31.3388 13.627 33.3612 13.277 35.203C12.989 36.7195 12.424 38.5006 11.155 39.4857C11.984 40.8508 12.902 42.1609 13.902 43.4074C13.364 42.1849 13.097 40.8478 13.241 39.6237C13.449 37.8404 13.94 35.9326 15.726 34.9818C16.738 36.7649 16.973 38.7652 17.059 40.741C17.129 42.3382 16.903 44.3083 15.816 45.6077C17.012 46.8764 18.302 48.0638 19.68 49.1587C18.79 47.994 18.167 46.6274 18.035 45.2758C17.849 43.3662 17.94 41.2641 19.601 39.8627C21.021 41.3765 21.869 43.6058 22.284 45.542C22.652 47.254 23.035 49.2803 22.161 50.9651C23.915 52.1333 25.787 53.1626 27.767 54.0342C26.374 53.0213 25.233 51.6316 24.69 50.1968C23.978 48.316 23.538 46.0749 24.925 44.1912C26.782 45.4055 28.148 47.4773 29.224 49.3669C30.147 50.9882 31.102 53.226 30.628 55.157C31.724 55.5365 32.849 55.8697 34 56.154L33.932 56.4424C32.776 56.157 31.647 55.8226 30.547 55.442C29.776 57.767 27.25 58.5351 25.207 58.8742C22.297 59.3574 18.831 58.4212 16.347 56.5354C17.658 54.6442 20.334 54.4524 22.351 54.3076L22.378 54.3058C24.588 54.1473 26.978 54.3591 29.201 54.9483C26.633 53.9509 24.231 52.6969 22.015 51.2226L21.983 51.2752C20.769 53.2839 18.331 53.3623 16.418 53.2352C13.822 53.0628 10.824 51.4521 9.09002 49.2255C10.721 47.7646 13.131 48.1735 14.999 48.4902L15.008 48.4917C17.092 48.8452 19.37 49.6165 21.281 50.804C21.099 50.6577 20.921 50.5029 20.748 50.3405C18.889 48.9882 17.175 47.4756 15.619 45.8263C15.601 45.8448 15.582 45.8631 15.564 45.8813C14.051 47.4343 11.847 47.0276 10.128 46.5222C7.82702 45.8459 5.44002 43.8055 4.29702 41.463C6.06902 40.4498 8.18803 41.2847 9.83603 41.9452C11.645 42.6701 13.558 43.8297 15.03 45.3079C14.878 45.1126 14.734 44.9086 14.597 44.6975C13.229 43.1222 11.999 41.4355 10.917 39.656L10.863 39.6907C9.15103 40.8177 7.21202 40.0015 5.67502 39.1989C3.59102 38.1108 1.91702 35.7193 1.19302 33.3673C3.04202 32.7632 4.86802 33.949 6.28802 34.8881C7.84102 35.9151 9.41404 37.38 10.493 39.0598C10.414 38.8943 10.34 38.7251 10.272 38.5527C9.23503 36.706 8.35304 34.7672 7.64004 32.7561L7.60302 32.7689L7.60003 32.77C6.04403 33.3736 4.31103 32.4351 3.18103 31.4059C1.61103 29.9755 0.504023 27.7764 0.245023 25.628C1.86702 25.4136 3.39604 26.6944 4.44104 27.7869C5.64404 29.0442 6.72302 30.5303 7.38702 32.1809C7.33902 32.0017 7.29702 31.8195 7.26202 31.6356C6.65802 29.7457 6.20101 27.7966 5.89901 25.804L5.87603 25.807L5.86804 25.8083C4.22204 26.0886 2.70103 24.8123 1.79303 23.5736C0.518027 21.8354 -0.139979 19.4298 0.0250215 17.2494C1.66402 17.3664 2.91204 18.9572 3.72104 20.2441C4.65804 21.7338 5.43401 23.4199 5.77401 25.1837C5.76401 25.0434 5.75804 24.9023 5.75604 24.7607C5.50604 22.7327 5.41701 20.6632 5.49801 18.568L5.49402 18.5678C3.82102 18.5063 2.58502 16.9216 1.94702 15.5159C1.03302 13.5044 0.88603 10.9617 1.49603 8.8189C3.09003 9.2755 3.97902 11.1415 4.50302 12.5779C5.10802 14.2341 5.53002 16.0404 5.53402 17.8362C5.62102 16.3296 5.79602 14.8111 6.06302 13.2862Z" fill="#CECECE"/>
<path d="M114.759 13.2864C115.547 11.3011 115.204 9.0179 114.479 7.0979C113.714 5.0777 112.384 3.0626 110.397 2C110.298 4.1292 110.954 6.2326 111.671 8.1294C112.316 9.8353 113.106 11.6528 114.413 13.0636C114.614 14.1324 114.768 15.1983 114.876 16.2593C114.443 15.1387 113.742 14.1173 112.866 13.2959C111.738 12.2377 110.06 11.4215 108.485 11.9042C108.947 13.6296 109.998 15.2838 111.243 16.4441C112.223 17.3574 113.517 18.5276 115.041 18.5737C115.104 20.1355 115.068 21.6831 114.938 23.2096C114.723 22.0925 114.263 21.0407 113.596 20.2574C112.682 19.1809 111.326 17.866 109.596 18.086C109.69 19.8324 110.393 21.6217 111.372 22.9662C112.149 24.0347 113.176 25.3966 114.634 25.7484C114.4 27.248 114.075 28.7227 113.662 30.1659C113.659 29.0609 113.413 27.9762 112.924 27.1062C112.236 25.8795 111.163 24.3494 109.429 24.2297C109.175 25.943 109.52 27.816 110.215 29.3056C110.769 30.4963 111.51 32.0147 112.858 32.643C112.291 34.1961 111.622 35.7059 110.852 37.1629C111.123 35.9069 111.112 34.5834 110.793 33.3925C110.352 31.7511 109.261 30.0268 107.507 29.5266C106.886 31.3389 106.972 33.361 107.333 35.2028C107.629 36.7194 108.211 38.5005 109.516 39.4856C108.663 40.8514 107.719 42.1621 106.688 43.4092C107.242 42.1862 107.516 40.8484 107.369 39.6238C107.154 37.8402 106.649 35.9326 104.812 34.9821C103.769 36.7651 103.527 38.7654 103.439 40.7412C103.367 42.3385 103.599 44.3087 104.719 45.6083C103.487 46.8766 102.16 48.0636 100.742 49.1582C101.657 47.9936 102.299 46.6271 102.434 45.2756C102.626 43.3661 102.533 41.264 100.822 39.8626C99.361 41.3763 98.488 43.6056 98.061 45.5419C97.682 47.2537 97.288 49.2801 98.187 50.9649C96.382 52.1333 94.454 53.1627 92.416 54.0346C93.85 53.0215 95.024 51.6316 95.583 50.1966C96.317 48.3159 96.769 46.0747 95.343 44.1911C93.43 45.4054 92.024 47.477 90.916 49.3667C89.966 50.9881 88.982 53.226 89.471 55.157C88.342 55.5365 87.185 55.8697 86 56.154L86.071 56.4424C87.259 56.157 88.422 55.8226 89.554 55.442C90.348 57.7669 92.948 58.5352 95.051 58.8742C98.047 59.3574 101.615 58.4213 104.173 56.5354C102.822 54.6442 100.068 54.4524 97.991 54.3077L97.964 54.3058C95.689 54.1473 93.228 54.3591 90.94 54.9485C93.582 53.9511 96.056 52.6968 98.337 51.2224L98.368 51.2716C99.618 53.2836 102.129 53.3623 104.099 53.2351C106.772 53.0627 109.857 51.452 111.643 49.2254C109.963 47.7648 107.483 48.1734 105.56 48.49L105.55 48.4918C103.405 48.8452 101.062 49.6161 99.094 50.8032C99.282 50.657 99.464 50.5024 99.643 50.3402C101.556 48.9882 103.32 47.4758 104.921 45.8268C104.944 45.8488 104.966 45.8704 104.988 45.892C106.546 47.4329 108.808 47.0263 110.574 46.522C112.944 45.8457 115.4 43.8053 116.578 41.4629C114.753 40.4496 112.572 41.2845 110.876 41.945C109.011 42.6706 107.04 43.8315 105.524 45.3117C105.68 45.1161 105.831 44.9118 105.972 44.7003C107.38 43.1242 108.648 41.4364 109.762 39.6559L109.81 39.6855L109.823 39.6932C111.583 40.8162 113.578 40.0008 115.158 39.1988C117.303 38.1106 119.028 35.7192 119.772 33.3673C117.869 32.7631 115.99 33.9489 114.528 34.888C112.928 35.9157 111.308 37.3814 110.196 39.0625C110.278 38.8967 110.355 38.727 110.426 38.5542C111.494 36.7068 112.401 34.7676 113.135 32.756L113.173 32.7688L113.18 32.7712C114.781 33.3722 116.564 32.4343 117.726 31.4058C119.342 29.9754 120.482 27.7764 120.748 25.628C119.079 25.4135 117.504 26.6944 116.429 27.7867C115.191 29.0449 114.078 30.532 113.394 32.1839C113.445 32.0037 113.489 31.8206 113.525 31.6355C114.146 29.7457 114.617 27.7968 114.928 25.8045L114.975 25.8106C116.662 26.0814 118.223 24.8088 119.155 23.5736C120.468 21.8354 121.144 19.4298 120.974 17.2493C119.288 17.3664 118.003 18.9571 117.171 20.2441C116.205 21.7346 115.405 23.4216 115.055 25.1865C115.067 25.0454 115.073 24.9035 115.075 24.7611C115.332 22.733 115.424 20.6633 115.34 18.5681C117.063 18.5083 118.339 16.9225 118.997 15.5162C119.936 13.5048 120.087 10.9621 119.461 8.8193C117.819 9.2759 116.904 11.1417 116.364 12.5781C115.741 14.2342 115.307 16.0408 115.304 17.8366C115.214 16.33 115.033 14.8113 114.759 13.2864Z" fill="#CECECE"/>
<path d="M41.66 54.195C41.61 54.275 41.557 54.335 41.5 54.375C41.447 54.415 41.377 54.435 41.29 54.435C41.213 54.435 41.13 54.4117 41.04 54.365C40.953 54.315 40.853 54.26 40.74 54.2C40.63 54.14 40.503 54.0867 40.36 54.04C40.217 53.99 40.053 53.965 39.87 53.965C39.553 53.965 39.317 54.0333 39.16 54.17C39.007 54.3033 38.93 54.485 38.93 54.715C38.93 54.8617 38.977 54.9833 39.07 55.08C39.163 55.1767 39.285 55.26 39.435 55.33C39.588 55.4 39.762 55.465 39.955 55.525C40.152 55.5817 40.352 55.6467 40.555 55.72C40.758 55.79 40.957 55.8733 41.15 55.97C41.347 56.0667 41.52 56.19 41.67 56.34C41.823 56.49 41.947 56.6733 42.04 56.89C42.133 57.1033 42.18 57.3617 42.18 57.665C42.18 58.0017 42.122 58.3167 42.005 58.61C41.888 58.9033 41.718 59.16 41.495 59.38C41.275 59.5967 41.002 59.7683 40.675 59.895C40.352 60.0183 39.983 60.08 39.57 60.08C39.343 60.08 39.112 60.0567 38.875 60.01C38.642 59.9633 38.415 59.8983 38.195 59.815C37.975 59.7283 37.768 59.6267 37.575 59.51C37.382 59.3933 37.213 59.2633 37.07 59.12L37.57 58.33C37.607 58.27 37.658 58.2217 37.725 58.185C37.792 58.1483 37.863 58.13 37.94 58.13C38.04 58.13 38.14 58.1617 38.24 58.225C38.343 58.2883 38.458 58.3583 38.585 58.435C38.715 58.5117 38.863 58.5817 39.03 58.645C39.197 58.7083 39.393 58.74 39.62 58.74C39.927 58.74 40.165 58.6733 40.335 58.54C40.505 58.4033 40.59 58.1883 40.59 57.895C40.59 57.725 40.543 57.5867 40.45 57.48C40.357 57.3733 40.233 57.285 40.08 57.215C39.93 57.145 39.758 57.0833 39.565 57.03C39.372 56.9767 39.173 56.9183 38.97 56.855C38.767 56.7883 38.568 56.7083 38.375 56.615C38.182 56.5183 38.008 56.3933 37.855 56.24C37.705 56.0833 37.583 55.89 37.49 55.66C37.397 55.4267 37.35 55.14 37.35 54.8C37.35 54.5267 37.405 54.26 37.515 54C37.625 53.74 37.787 53.5083 38 53.305C38.213 53.1017 38.475 52.94 38.785 52.82C39.095 52.6967 39.45 52.635 39.85 52.635C40.073 52.635 40.29 52.6533 40.5 52.69C40.713 52.7233 40.915 52.775 41.105 52.845C41.295 52.9117 41.472 52.9933 41.635 53.09C41.802 53.1833 41.95 53.29 42.08 53.41L41.66 54.195ZM48.91 52.715V54.015H45.92V55.715H48.21V56.965H45.92V58.7H48.91V60H44.22V52.715H48.91ZM52.764 57.305V60H51.074V52.715H53.444C53.971 52.715 54.419 52.77 54.789 52.88C55.163 52.9867 55.466 53.1367 55.699 53.33C55.936 53.5233 56.108 53.7517 56.214 54.015C56.321 54.2783 56.374 54.565 56.374 54.875C56.374 55.1117 56.343 55.335 56.279 55.545C56.216 55.755 56.121 55.95 55.994 56.13C55.871 56.3067 55.718 56.465 55.534 56.605C55.354 56.745 55.146 56.86 54.909 56.95C55.023 57.0067 55.128 57.0767 55.224 57.16C55.324 57.2433 55.411 57.345 55.484 57.465L57.034 60H55.504C55.221 60 55.018 59.8933 54.894 59.68L53.684 57.565C53.631 57.4717 53.568 57.405 53.494 57.365C53.424 57.325 53.324 57.305 53.194 57.305H52.764ZM52.764 56.14H53.444C53.674 56.14 53.869 56.1117 54.029 56.055C54.193 55.995 54.326 55.9133 54.429 55.81C54.533 55.7067 54.608 55.5867 54.654 55.45C54.701 55.31 54.724 55.16 54.724 55C54.724 54.68 54.619 54.43 54.409 54.25C54.203 54.07 53.881 53.98 53.444 53.98H52.764V56.14ZM58.325 52.715H59.685C59.831 52.715 59.951 52.7483 60.045 52.815C60.138 52.8817 60.205 52.97 60.245 53.08L61.655 56.98C61.718 57.15 61.781 57.335 61.845 57.535C61.911 57.735 61.973 57.945 62.03 58.165C62.076 57.945 62.13 57.735 62.19 57.535C62.253 57.335 62.315 57.15 62.375 56.98L63.775 53.08C63.808 52.9867 63.873 52.9033 63.97 52.83C64.066 52.7533 64.185 52.715 64.325 52.715H65.695L62.775 60H61.245L58.325 52.715ZM69.348 60H67.648V52.715H69.348V60ZM76.796 58.115C76.836 58.115 76.876 58.1233 76.916 58.14C76.956 58.1533 76.994 58.1783 77.031 58.215L77.701 58.92C77.407 59.3033 77.039 59.5933 76.596 59.79C76.156 59.9833 75.634 60.08 75.031 60.08C74.477 60.08 73.981 59.9867 73.541 59.8C73.104 59.61 72.732 59.35 72.426 59.02C72.122 58.6867 71.889 58.2933 71.726 57.84C71.562 57.3833 71.481 56.8883 71.481 56.355C71.481 55.8117 71.574 55.3133 71.761 54.86C71.947 54.4033 72.207 54.01 72.541 53.68C72.877 53.35 73.279 53.0933 73.746 52.91C74.212 52.7267 74.727 52.635 75.291 52.635C75.564 52.635 75.821 52.66 76.061 52.71C76.304 52.7567 76.531 52.8233 76.741 52.91C76.951 52.9933 77.144 53.095 77.321 53.215C77.497 53.3317 77.654 53.4617 77.791 53.605L77.221 54.37C77.184 54.4167 77.141 54.46 77.091 54.5C77.041 54.5367 76.971 54.555 76.881 54.555C76.821 54.555 76.764 54.5417 76.711 54.515C76.657 54.4883 76.601 54.4567 76.541 54.42C76.481 54.38 76.414 54.3383 76.341 54.295C76.271 54.2483 76.186 54.2067 76.086 54.17C75.989 54.13 75.874 54.0967 75.741 54.07C75.611 54.0433 75.457 54.03 75.281 54.03C74.974 54.03 74.694 54.085 74.441 54.195C74.187 54.3017 73.969 54.4567 73.786 54.66C73.606 54.86 73.464 55.1033 73.361 55.39C73.261 55.6767 73.211 55.9983 73.211 56.355C73.211 56.7283 73.261 57.06 73.361 57.35C73.464 57.64 73.602 57.885 73.776 58.085C73.952 58.2817 74.157 58.4317 74.391 58.535C74.624 58.6383 74.874 58.69 75.141 58.69C75.294 58.69 75.434 58.6833 75.561 58.67C75.687 58.6533 75.804 58.6267 75.911 58.59C76.021 58.5533 76.124 58.5067 76.221 58.45C76.321 58.39 76.421 58.3167 76.521 58.23C76.561 58.1967 76.604 58.17 76.651 58.15C76.697 58.1267 76.746 58.115 76.796 58.115ZM84.363 52.715V54.015H81.373V55.715H83.663V56.965H81.373V58.7H84.363V60H79.673V52.715H84.363Z" fill="#CECECE"/>
<path d="M21.328 16.2999L20.156 18.7799C19.583 20.0099 19.297 20.8499 19.297 21.2999C19.297 21.6399 19.625 21.8099 20.281 21.8099C20.375 21.8199 20.573 21.84 20.875 21.86L21.172 21.88V23.33H15V21.88L15.297 21.86C16.13 21.81 16.651 21.67 16.859 21.45C17.078 21.24 17.547 20.3499 18.266 18.7799L26.875 0H28.484L37.156 18.7999C37.917 20.3499 38.401 21.2299 38.609 21.4399C38.828 21.6499 39.375 21.79 40.25 21.86L40.453 21.88V23.33H30.812V21.88L31.109 21.86C32.422 21.78 33.089 21.57 33.109 21.25C33.13 20.94 32.833 20.1099 32.219 18.7699L31.078 16.2999H21.328ZM22.047 14.75H30.344L26.125 5.7699L22.047 14.75Z" fill="#CECECE"/>
<path d="M53.703 0.476959H46V1.90701L46.297 1.92691C47.359 2.00691 47.989 2.18696 48.187 2.47696C48.396 2.75696 48.5 3.58697 48.5 4.98697V19.0669C48.5 20.4569 48.396 21.307 48.187 21.597C47.979 21.877 47.349 22.057 46.297 22.127L46 22.147V23.597H52.937V22.147L52.656 22.127C51.792 22.077 51.271 21.897 51.094 21.597C50.917 21.297 50.828 20.4469 50.828 19.0669V4.37698L57.875 21.017H59.422L66.641 5.34695V19.0669C66.641 20.4769 66.552 21.317 66.375 21.617C66.208 21.907 65.687 22.077 64.812 22.127L64.516 22.147V23.597H73.578V22.147L73.281 22.127C72.229 22.057 71.599 21.877 71.391 21.597C71.182 21.307 71.078 20.4569 71.078 19.0669V4.98697C71.078 3.58697 71.177 2.75696 71.375 2.47696C71.583 2.18696 72.224 2.00691 73.297 1.92691L73.594 1.90701V0.476959H66.641L60.109 15.4369L53.703 0.476959Z" fill="#CECECE"/>
<path d="M85.828 16.5869L84.656 19.0669C84.083 20.2969 83.797 21.1369 83.797 21.5869C83.797 21.9269 84.125 22.097 84.781 22.097C84.875 22.107 85.073 22.127 85.375 22.147L85.672 22.167V23.617H79.5V22.167L79.797 22.147C80.63 22.097 81.151 21.957 81.359 21.737C81.578 21.527 82.047 20.6369 82.766 19.0669L91.375 0.287018H92.984L101.656 19.0869C102.417 20.6369 102.901 21.517 103.109 21.727C103.328 21.937 103.875 22.077 104.75 22.147L104.953 22.167V23.617H95.312V22.167L95.609 22.147C96.922 22.067 97.589 21.857 97.609 21.537C97.63 21.227 97.333 20.3969 96.719 19.0569L95.578 16.5869H85.828ZM86.547 15.037H94.844L90.625 6.05692L86.547 15.037Z" fill="#CECECE"/>
</svg>
